<?xml version="1.0" encoding="UTF-8" standalone="no"?>
<!-- Created with Inkscape (http://www.inkscape.org/) -->

<svg
   xmlns:dc="http://purl.org/dc/elements/1.1/"
   xmlns:cc="http://creativecommons.org/ns#"
   xmlns:rdf="http://www.w3.org/1999/02/22-rdf-syntax-ns#"
   xmlns:svg="http://www.w3.org/2000/svg"
   xmlns="http://www.w3.org/2000/svg"
   xmlns:xlink="http://www.w3.org/1999/xlink"
   xmlns:sodipodi="http://sodipodi.sourceforge.net/DTD/sodipodi-0.dtd"
   xmlns:inkscape="http://www.inkscape.org/namespaces/inkscape"
   width="765"
   height="990"
   id="svg3059"
   version="1.1"
   inkscape:version="0.48.1 "
   sodipodi:docname="New document 4">
  <defs
     id="defs3061" />
  <sodipodi:namedview
     id="base"
     pagecolor="#ffffff"
     bordercolor="#666666"
     borderopacity="1.0"
     inkscape:pageopacity="0.0"
     inkscape:pageshadow="2"
     inkscape:zoom="0.49497475"
     inkscape:cx="-70.710495"
     inkscape:cy="527.88654"
     inkscape:document-units="px"
     inkscape:current-layer="layer1"
     showgrid="false"
     showguides="true"
     inkscape:guide-bbox="true"
     inkscape:window-width="1366"
     inkscape:window-height="746"
     inkscape:window-x="-8"
     inkscape:window-y="-8"
     inkscape:window-maximized="1" />
  <metadata
     id="metadata3064">
    <rdf:RDF>
      <cc:Work
         rdf:about="">
        <dc:format>image/svg+xml</dc:format>
        <dc:type
           rdf:resource="http://purl.org/dc/dcmitype/StillImage" />
        <dc:title></dc:title>
      </cc:Work>
    </rdf:RDF>
  </metadata>
  <g
     inkscape:label="Layer 1"
     inkscape:groupmode="layer"
     id="layer1"
     transform="translate(0,-62.362183)">
    <g
       id="g3096"
       transform="matrix(0.23040144,0,0,0.23040144,154.11909,191.7406)" />
    <g
       id="g3969">
      <g
         inkscape:tile-y0="55.407311"
         inkscape:tile-x0="54.199589"
         inkscape:tile-h="156.43602"
         inkscape:tile-w="123.94568"
         inkscape:tile-cy="133.62532"
         inkscape:tile-cx="116.17243"
         transform="matrix(0.74948597,0,0,0.74948597,59.012695,126.23788)"
         id="g3487">
        <g
           id="text5136"
           style="font-size:663.64770508px;font-style:normal;font-variant:normal;font-weight:bold;font-stretch:normal;line-height:125%;letter-spacing:0px;word-spacing:0px;fill:#000000;fill-opacity:1;stroke:none;display:inline;font-family:Aharoni;-inkscape-font-specification:Aharoni Bold"
           transform="matrix(0.23040144,0,0,0.23040144,30.622891,78.857384)">
          <path
             inkscape:connector-curvature="0"
             id="path4514"
             d="m 408.5607,143.65761 c -4e-4,34.6745 -9.8588,62.88991 -29.57522,84.64633 -28.55574,31.50159 -72.06866,47.25236 -130.53892,47.25236 l -193.428749,0 0,-464.02503 179.491009,0 c 87.02563,4.6e-4 130.53855,40.34057 130.53891,121.020444 -3.6e-4,24.249735 -4.75958,44.533105 -14.27769,60.8501703 -7.93239,13.8247015 -20.1704,25.6094527 -36.71407,35.3542887 37.16698,7.705661 62.54953,22.549915 76.1477,44.532806 12.23762,20.170261 18.35663,43.626451 18.35703,70.368631 z M 253.54574,-51.470867 c -2.4e-4,-21.076247 -9.5187,-35.013981 -28.55538,-41.813245 -6.79912,-2.26593 -15.86432,-3.399079 -27.19561,-3.399452 l -22.09643,0 0,90.7653386 22.09643,0 c 20.84975,2.814e-4 35.80731,-5.0988896 44.87275,-15.2975286 7.25192,-8.158377 10.878,-18.243405 10.87824,-30.255113 z m 34.33445,186.969797 c -2.8e-4,-26.96881 -13.93801,-42.832896 -41.81325,-47.592312 -8.83879,-1.359591 -24.02299,-2.039481 -45.55263,-2.03967 l -24.81599,0 0,97.904182 26.85566,0 c 30.82146,1e-4 52.35129,-3.62598 64.58956,-10.87824 13.82416,-8.15857 20.73637,-20.62322 20.73665,-37.39396 z" />
          <path
             inkscape:connector-curvature="0"
             id="path4516"
             d="m 708.48805,275.5563 -264.13733,0 0,-464.02503 264.13733,0 0,100.963684 -143.45682,0 0,78.5273148 135.63808,0 0,100.9636902 -135.63808,0 0,82.606661 143.45682,0 z" />
        </g>
        <g
           id="text3614"
           style="font-size:295.66604614px;font-style:normal;font-variant:normal;font-weight:bold;font-stretch:normal;line-height:125%;letter-spacing:0px;word-spacing:0px;fill:#000000;fill-opacity:1;stroke:none;display:inline;font-family:Aharoni;-inkscape-font-specification:Aharoni Bold"
           transform="matrix(0.23040144,0,0,0.23040144,30.622891,78.857384)">
          <path
             inkscape:connector-curvature="0"
             id="path4519"
             d="m 231.43574,501.74826 -51.25071,0 0,-82.00113 -73.91651,0 0,82.00113 -51.250708,0 0,-197.06257 51.250708,0 0,76.08203 73.91651,0 0,-76.08203 51.25071,0 z" />
          <path
             inkscape:connector-curvature="0"
             id="path4521"
             d="m 378.10522,501.74826 -112.17408,0 0,-197.06257 112.17408,0 0,42.87735 -60.92337,0 0,33.34905 57.6029,0 0,42.87735 -57.6029,0 0,35.08147 60.92337,0 z" />
          <path
             inkscape:connector-curvature="0"
             id="path4523"
             d="m 574.73471,501.74826 -63.81074,0 -48.79644,-75.64893 0,75.64893 -51.25071,0 0,-197.06257 79.69124,0 c 23.29128,1.9e-4 40.5192,6.97798 51.68381,20.93338 9.04691,11.26089 13.57044,24.49462 13.57061,39.70125 -1.7e-4,17.42055 -5.19741,31.32801 -15.59176,41.72241 -6.64108,6.64102 -15.78439,11.2608 -27.42996,13.85935 z M 502.55062,368.20769 c -1.1e-4,-7.02578 -2.55062,-12.94487 -7.65151,-17.75729 -4.81238,-4.52338 -12.56013,-6.78515 -23.24328,-6.7853 l -9.5283,0 0,49.22955 9.5283,0 c 10.7794,1.1e-4 18.52715,-2.26166 23.24328,-6.78531 5.10089,-4.90839 7.6514,-10.87561 7.65151,-17.90165 z" />
          <path
             inkscape:connector-curvature="0"
             id="path4525"
             d="m 708.41968,501.74826 -112.17408,0 0,-197.06257 112.17408,0 0,42.87735 -60.92338,0 0,33.34905 57.60291,0 0,42.87735 -57.60291,0 0,35.08147 60.92338,0 z" />
        </g>
        <g
           id="text3618"
           style="font-size:258.0821228px;font-style:normal;font-variant:normal;font-weight:bold;font-stretch:normal;line-height:125%;letter-spacing:0px;word-spacing:0px;fill:#000000;fill-opacity:1;stroke:none;display:inline;font-family:Aharoni;-inkscape-font-specification:Aharoni Bold"
           transform="matrix(0.23040144,0,0,0.23040144,30.622891,78.857384)">
          <path
             inkscape:connector-curvature="0"
             id="path4528"
             d="m 226.77852,708.05707 -44.73591,0 -82.288884,-105.34993 0,105.34993 -44.735915,0 0,-172.01275 44.735915,0 82.288884,105.22392 0,-105.22392 44.73591,0 z" />
          <path
             inkscape:connector-curvature="0"
             id="path4530"
             d="m 438.2258,622.61777 c -2e-4,23.35515 -7.77122,43.85384 -23.31309,61.49613 -17.7265,20.07866 -41.71165,30.11798 -71.95551,30.11798 -30.16006,0 -54.1032,-10.03932 -71.8295,-30.11798 -15.54207,-17.64229 -23.31309,-38.14098 -23.31308,-61.49613 -1e-5,-10.66931 2.10027,-21.61175 6.30083,-32.82734 4.20054,-11.21535 9.82928,-20.81361 16.88624,-28.79481 17.72629,-20.07848 41.71144,-30.1178 71.95551,-30.11798 30.24386,1.8e-4 54.22901,10.0395 71.95551,30.11798 15.54187,17.64247 23.31289,38.18316 23.31309,61.62215 z m -46.50015,0 c -1.6e-4,-12.0975 -3.86466,-22.55687 -11.59353,-31.37815 -9.91345,-11.25736 -22.30507,-16.8861 -37.17492,-16.88623 -10.24945,1.3e-4 -19.53267,2.87751 -27.84968,8.63214 -8.31717,5.75488 -14.23995,13.42089 -17.76835,22.99804 -2.01633,5.46082 -3.02446,11.00555 -3.0244,16.6342 -6e-5,11.59361 3.86445,21.96897 11.59353,31.12612 9.57719,11.34154 21.92681,17.01228 37.0489,17.01225 15.12188,3e-5 27.51351,-5.62871 37.17492,-16.88624 7.72887,-8.98912 11.59337,-19.40649 11.59353,-31.25213 z" />
          <path
             inkscape:connector-curvature="0"
             id="path4532"
             d="m 701.86159,536.04432 -54.94327,172.01275 -45.61803,0 -31.37815,-99.67918 -32.89034,99.67918 -45.49202,0 -51.28878,-172.01275 46.75218,0 29.86595,111.1467 36.41881,-111.1467 35.5367,0 33.89849,111.1467 32.51229,-111.1467 z" />
        </g>
        <text
           sodipodi:linespacing="125%"
           id="text5165"
           y="-28.812555"
           x="34.152058"
           style="font-size:13.67780113px;font-style:normal;font-variant:normal;font-weight:bold;font-stretch:normal;line-height:125%;letter-spacing:0px;word-spacing:0px;fill:#000000;fill-opacity:1;stroke:none;font-family:Aharoni;-inkscape-font-specification:Aharoni Bold"
           xml:space="preserve"
           transform="matrix(0,1,-1,0,0,0)"><tspan
             y="-28.812555"
             x="34.152058"
             id="tspan5167"
             sodipodi:role="line">GUERILLA MINDFULNESS FRONT</tspan></text>
      </g>
      <use
         height="1052.3622"
         width="744.09448"
         id="use3527"
         xlink:href="#g3487"
         inkscape:tiled-clone-of="#g3487"
         y="0"
         x="0" />
      <use
         height="1052.3622"
         width="744.09448"
         id="use3529"
         transform="translate(2.9999999e-7,216.43602)"
         xlink:href="#g3487"
         inkscape:tiled-clone-of="#g3487"
         y="0"
         x="0" />
      <use
         height="1052.3622"
         width="744.09448"
         id="use3531"
         transform="translate(2.9999999e-7,432.87204)"
         xlink:href="#g3487"
         inkscape:tiled-clone-of="#g3487"
         y="0"
         x="0" />
      <use
         height="1052.3622"
         width="744.09448"
         id="use3533"
         transform="translate(2.9999999e-7,649.30806)"
         xlink:href="#g3487"
         inkscape:tiled-clone-of="#g3487"
         y="0"
         x="0" />
    </g>
    <g
       transform="matrix(0.23040144,0,0,0.23040144,315.7435,191.7406)"
       id="g3785" />
    <g
       id="g3948"
       transform="translate(-1.5258789e-5,0)">
      <g
         id="g3787"
         transform="matrix(0.74948597,0,0,0.74948597,220.6371,126.23788)"
         inkscape:tile-cx="116.17243"
         inkscape:tile-cy="133.62532"
         inkscape:tile-w="123.94568"
         inkscape:tile-h="156.43602"
         inkscape:tile-x0="54.199589"
         inkscape:tile-y0="55.407311">
        <g
           transform="matrix(0.23040144,0,0,0.23040144,30.622891,78.857384)"
           style="font-size:663.64770508px;font-style:normal;font-variant:normal;font-weight:bold;font-stretch:normal;line-height:125%;letter-spacing:0px;word-spacing:0px;fill:#000000;fill-opacity:1;stroke:none;display:inline;font-family:Aharoni;-inkscape-font-specification:Aharoni Bold"
           id="g3789">
          <path
             d="m 408.5607,143.65761 c -4e-4,34.6745 -9.8588,62.88991 -29.57522,84.64633 -28.55574,31.50159 -72.06866,47.25236 -130.53892,47.25236 l -193.428749,0 0,-464.02503 179.491009,0 c 87.02563,4.6e-4 130.53855,40.34057 130.53891,121.020444 -3.6e-4,24.249735 -4.75958,44.533105 -14.27769,60.8501703 -7.93239,13.8247015 -20.1704,25.6094527 -36.71407,35.3542887 37.16698,7.705661 62.54953,22.549915 76.1477,44.532806 12.23762,20.170261 18.35663,43.626451 18.35703,70.368631 z M 253.54574,-51.470867 c -2.4e-4,-21.076247 -9.5187,-35.013981 -28.55538,-41.813245 -6.79912,-2.26593 -15.86432,-3.399079 -27.19561,-3.399452 l -22.09643,0 0,90.7653386 22.09643,0 c 20.84975,2.814e-4 35.80731,-5.0988896 44.87275,-15.2975286 7.25192,-8.158377 10.878,-18.243405 10.87824,-30.255113 z m 34.33445,186.969797 c -2.8e-4,-26.96881 -13.93801,-42.832896 -41.81325,-47.592312 -8.83879,-1.359591 -24.02299,-2.039481 -45.55263,-2.03967 l -24.81599,0 0,97.904182 26.85566,0 c 30.82146,1e-4 52.35129,-3.62598 64.58956,-10.87824 13.82416,-8.15857 20.73637,-20.62322 20.73665,-37.39396 z"
             id="path3791"
             inkscape:connector-curvature="0" />
          <path
             d="m 708.48805,275.5563 -264.13733,0 0,-464.02503 264.13733,0 0,100.963684 -143.45682,0 0,78.5273148 135.63808,0 0,100.9636902 -135.63808,0 0,82.606661 143.45682,0 z"
             id="path3793"
             inkscape:connector-curvature="0" />
        </g>
        <g
           transform="matrix(0.23040144,0,0,0.23040144,30.622891,78.857384)"
           style="font-size:295.66604614px;font-style:normal;font-variant:normal;font-weight:bold;font-stretch:normal;line-height:125%;letter-spacing:0px;word-spacing:0px;fill:#000000;fill-opacity:1;stroke:none;display:inline;font-family:Aharoni;-inkscape-font-specification:Aharoni Bold"
           id="g3795">
          <path
             d="m 231.43574,501.74826 -51.25071,0 0,-82.00113 -73.91651,0 0,82.00113 -51.250708,0 0,-197.06257 51.250708,0 0,76.08203 73.91651,0 0,-76.08203 51.25071,0 z"
             id="path3797"
             inkscape:connector-curvature="0" />
          <path
             d="m 378.10522,501.74826 -112.17408,0 0,-197.06257 112.17408,0 0,42.87735 -60.92337,0 0,33.34905 57.6029,0 0,42.87735 -57.6029,0 0,35.08147 60.92337,0 z"
             id="path3799"
             inkscape:connector-curvature="0" />
          <path
             d="m 574.73471,501.74826 -63.81074,0 -48.79644,-75.64893 0,75.64893 -51.25071,0 0,-197.06257 79.69124,0 c 23.29128,1.9e-4 40.5192,6.97798 51.68381,20.93338 9.04691,11.26089 13.57044,24.49462 13.57061,39.70125 -1.7e-4,17.42055 -5.19741,31.32801 -15.59176,41.72241 -6.64108,6.64102 -15.78439,11.2608 -27.42996,13.85935 z M 502.55062,368.20769 c -1.1e-4,-7.02578 -2.55062,-12.94487 -7.65151,-17.75729 -4.81238,-4.52338 -12.56013,-6.78515 -23.24328,-6.7853 l -9.5283,0 0,49.22955 9.5283,0 c 10.7794,1.1e-4 18.52715,-2.26166 23.24328,-6.78531 5.10089,-4.90839 7.6514,-10.87561 7.65151,-17.90165 z"
             id="path3801"
             inkscape:connector-curvature="0" />
          <path
             d="m 708.41968,501.74826 -112.17408,0 0,-197.06257 112.17408,0 0,42.87735 -60.92338,0 0,33.34905 57.60291,0 0,42.87735 -57.60291,0 0,35.08147 60.92338,0 z"
             id="path3803"
             inkscape:connector-curvature="0" />
        </g>
        <g
           transform="matrix(0.23040144,0,0,0.23040144,30.622891,78.857384)"
           style="font-size:258.0821228px;font-style:normal;font-variant:normal;font-weight:bold;font-stretch:normal;line-height:125%;letter-spacing:0px;word-spacing:0px;fill:#000000;fill-opacity:1;stroke:none;display:inline;font-family:Aharoni;-inkscape-font-specification:Aharoni Bold"
           id="g3805">
          <path
             d="m 226.77852,708.05707 -44.73591,0 -82.288884,-105.34993 0,105.34993 -44.735915,0 0,-172.01275 44.735915,0 82.288884,105.22392 0,-105.22392 44.73591,0 z"
             id="path3807"
             inkscape:connector-curvature="0" />
          <path
             d="m 438.2258,622.61777 c -2e-4,23.35515 -7.77122,43.85384 -23.31309,61.49613 -17.7265,20.07866 -41.71165,30.11798 -71.95551,30.11798 -30.16006,0 -54.1032,-10.03932 -71.8295,-30.11798 -15.54207,-17.64229 -23.31309,-38.14098 -23.31308,-61.49613 -1e-5,-10.66931 2.10027,-21.61175 6.30083,-32.82734 4.20054,-11.21535 9.82928,-20.81361 16.88624,-28.79481 17.72629,-20.07848 41.71144,-30.1178 71.95551,-30.11798 30.24386,1.8e-4 54.22901,10.0395 71.95551,30.11798 15.54187,17.64247 23.31289,38.18316 23.31309,61.62215 z m -46.50015,0 c -1.6e-4,-12.0975 -3.86466,-22.55687 -11.59353,-31.37815 -9.91345,-11.25736 -22.30507,-16.8861 -37.17492,-16.88623 -10.24945,1.3e-4 -19.53267,2.87751 -27.84968,8.63214 -8.31717,5.75488 -14.23995,13.42089 -17.76835,22.99804 -2.01633,5.46082 -3.02446,11.00555 -3.0244,16.6342 -6e-5,11.59361 3.86445,21.96897 11.59353,31.12612 9.57719,11.34154 21.92681,17.01228 37.0489,17.01225 15.12188,3e-5 27.51351,-5.62871 37.17492,-16.88624 7.72887,-8.98912 11.59337,-19.40649 11.59353,-31.25213 z"
             id="path3809"
             inkscape:connector-curvature="0" />
          <path
             d="m 701.86159,536.04432 -54.94327,172.01275 -45.61803,0 -31.37815,-99.67918 -32.89034,99.67918 -45.49202,0 -51.28878,-172.01275 46.75218,0 29.86595,111.1467 36.41881,-111.1467 35.5367,0 33.89849,111.1467 32.51229,-111.1467 z"
             id="path3811"
             inkscape:connector-curvature="0" />
        </g>
        <text
           transform="matrix(0,1,-1,0,0,0)"
           xml:space="preserve"
           style="font-size:13.67780113px;font-style:normal;font-variant:normal;font-weight:bold;font-stretch:normal;line-height:125%;letter-spacing:0px;word-spacing:0px;fill:#000000;fill-opacity:1;stroke:none;font-family:Aharoni;-inkscape-font-specification:Aharoni Bold"
           x="34.152058"
           y="-28.812555"
           id="text3813"
           sodipodi:linespacing="125%"><tspan
             sodipodi:role="line"
             id="tspan3815"
             x="34.152058"
             y="-28.812555">GUERILLA MINDFULNESS FRONT</tspan></text>
      </g>
      <use
         transform="translate(161.62441,0)"
         x="0"
         y="0"
         inkscape:tiled-clone-of="#g3487"
         xlink:href="#g3487"
         id="use3817"
         width="744.09448"
         height="1052.3622" />
      <use
         x="0"
         y="0"
         inkscape:tiled-clone-of="#g3487"
         xlink:href="#g3487"
         transform="translate(161.62441,216.43602)"
         id="use3819"
         width="744.09448"
         height="1052.3622" />
      <use
         x="0"
         y="0"
         inkscape:tiled-clone-of="#g3487"
         xlink:href="#g3487"
         transform="translate(161.62441,432.87204)"
         id="use3821"
         width="744.09448"
         height="1052.3622" />
      <use
         x="0"
         y="0"
         inkscape:tiled-clone-of="#g3487"
         xlink:href="#g3487"
         transform="translate(161.62441,649.30806)"
         id="use3823"
         width="744.09448"
         height="1052.3622" />
    </g>
    <g
       id="g3825"
       transform="matrix(0.23040144,0,0,0.23040144,475.3476,191.7406)" />
    <g
       id="g3927"
       transform="translate(2.0202942,0)">
      <g
         inkscape:tile-y0="55.407311"
         inkscape:tile-x0="54.199589"
         inkscape:tile-h="156.43602"
         inkscape:tile-w="123.94568"
         inkscape:tile-cy="133.62532"
         inkscape:tile-cx="116.17243"
         transform="matrix(0.74948597,0,0,0.74948597,380.2412,126.23788)"
         id="g3827">
        <g
           id="g3829"
           style="font-size:663.64770508px;font-style:normal;font-variant:normal;font-weight:bold;font-stretch:normal;line-height:125%;letter-spacing:0px;word-spacing:0px;fill:#000000;fill-opacity:1;stroke:none;display:inline;font-family:Aharoni;-inkscape-font-specification:Aharoni Bold"
           transform="matrix(0.23040144,0,0,0.23040144,30.622891,78.857384)">
          <path
             inkscape:connector-curvature="0"
             id="path3831"
             d="m 408.5607,143.65761 c -4e-4,34.6745 -9.8588,62.88991 -29.57522,84.64633 -28.55574,31.50159 -72.06866,47.25236 -130.53892,47.25236 l -193.428749,0 0,-464.02503 179.491009,0 c 87.02563,4.6e-4 130.53855,40.34057 130.53891,121.020444 -3.6e-4,24.249735 -4.75958,44.533105 -14.27769,60.8501703 -7.93239,13.8247015 -20.1704,25.6094527 -36.71407,35.3542887 37.16698,7.705661 62.54953,22.549915 76.1477,44.532806 12.23762,20.170261 18.35663,43.626451 18.35703,70.368631 z M 253.54574,-51.470867 c -2.4e-4,-21.076247 -9.5187,-35.013981 -28.55538,-41.813245 -6.79912,-2.26593 -15.86432,-3.399079 -27.19561,-3.399452 l -22.09643,0 0,90.7653386 22.09643,0 c 20.84975,2.814e-4 35.80731,-5.0988896 44.87275,-15.2975286 7.25192,-8.158377 10.878,-18.243405 10.87824,-30.255113 z m 34.33445,186.969797 c -2.8e-4,-26.96881 -13.93801,-42.832896 -41.81325,-47.592312 -8.83879,-1.359591 -24.02299,-2.039481 -45.55263,-2.03967 l -24.81599,0 0,97.904182 26.85566,0 c 30.82146,1e-4 52.35129,-3.62598 64.58956,-10.87824 13.82416,-8.15857 20.73637,-20.62322 20.73665,-37.39396 z" />
          <path
             inkscape:connector-curvature="0"
             id="path3833"
             d="m 708.48805,275.5563 -264.13733,0 0,-464.02503 264.13733,0 0,100.963684 -143.45682,0 0,78.5273148 135.63808,0 0,100.9636902 -135.63808,0 0,82.606661 143.45682,0 z" />
        </g>
        <g
           id="g3835"
           style="font-size:295.66604614px;font-style:normal;font-variant:normal;font-weight:bold;font-stretch:normal;line-height:125%;letter-spacing:0px;word-spacing:0px;fill:#000000;fill-opacity:1;stroke:none;display:inline;font-family:Aharoni;-inkscape-font-specification:Aharoni Bold"
           transform="matrix(0.23040144,0,0,0.23040144,30.622891,78.857384)">
          <path
             inkscape:connector-curvature="0"
             id="path3837"
             d="m 231.43574,501.74826 -51.25071,0 0,-82.00113 -73.91651,0 0,82.00113 -51.250708,0 0,-197.06257 51.250708,0 0,76.08203 73.91651,0 0,-76.08203 51.25071,0 z" />
          <path
             inkscape:connector-curvature="0"
             id="path3839"
             d="m 378.10522,501.74826 -112.17408,0 0,-197.06257 112.17408,0 0,42.87735 -60.92337,0 0,33.34905 57.6029,0 0,42.87735 -57.6029,0 0,35.08147 60.92337,0 z" />
          <path
             inkscape:connector-curvature="0"
             id="path3841"
             d="m 574.73471,501.74826 -63.81074,0 -48.79644,-75.64893 0,75.64893 -51.25071,0 0,-197.06257 79.69124,0 c 23.29128,1.9e-4 40.5192,6.97798 51.68381,20.93338 9.04691,11.26089 13.57044,24.49462 13.57061,39.70125 -1.7e-4,17.42055 -5.19741,31.32801 -15.59176,41.72241 -6.64108,6.64102 -15.78439,11.2608 -27.42996,13.85935 z M 502.55062,368.20769 c -1.1e-4,-7.02578 -2.55062,-12.94487 -7.65151,-17.75729 -4.81238,-4.52338 -12.56013,-6.78515 -23.24328,-6.7853 l -9.5283,0 0,49.22955 9.5283,0 c 10.7794,1.1e-4 18.52715,-2.26166 23.24328,-6.78531 5.10089,-4.90839 7.6514,-10.87561 7.65151,-17.90165 z" />
          <path
             inkscape:connector-curvature="0"
             id="path3843"
             d="m 708.41968,501.74826 -112.17408,0 0,-197.06257 112.17408,0 0,42.87735 -60.92338,0 0,33.34905 57.60291,0 0,42.87735 -57.60291,0 0,35.08147 60.92338,0 z" />
        </g>
        <g
           id="g3845"
           style="font-size:258.0821228px;font-style:normal;font-variant:normal;font-weight:bold;font-stretch:normal;line-height:125%;letter-spacing:0px;word-spacing:0px;fill:#000000;fill-opacity:1;stroke:none;display:inline;font-family:Aharoni;-inkscape-font-specification:Aharoni Bold"
           transform="matrix(0.23040144,0,0,0.23040144,30.622891,78.857384)">
          <path
             inkscape:connector-curvature="0"
             id="path3847"
             d="m 226.77852,708.05707 -44.73591,0 -82.288884,-105.34993 0,105.34993 -44.735915,0 0,-172.01275 44.735915,0 82.288884,105.22392 0,-105.22392 44.73591,0 z" />
          <path
             inkscape:connector-curvature="0"
             id="path3849"
             d="m 438.2258,622.61777 c -2e-4,23.35515 -7.77122,43.85384 -23.31309,61.49613 -17.7265,20.07866 -41.71165,30.11798 -71.95551,30.11798 -30.16006,0 -54.1032,-10.03932 -71.8295,-30.11798 -15.54207,-17.64229 -23.31309,-38.14098 -23.31308,-61.49613 -1e-5,-10.66931 2.10027,-21.61175 6.30083,-32.82734 4.20054,-11.21535 9.82928,-20.81361 16.88624,-28.79481 17.72629,-20.07848 41.71144,-30.1178 71.95551,-30.11798 30.24386,1.8e-4 54.22901,10.0395 71.95551,30.11798 15.54187,17.64247 23.31289,38.18316 23.31309,61.62215 z m -46.50015,0 c -1.6e-4,-12.0975 -3.86466,-22.55687 -11.59353,-31.37815 -9.91345,-11.25736 -22.30507,-16.8861 -37.17492,-16.88623 -10.24945,1.3e-4 -19.53267,2.87751 -27.84968,8.63214 -8.31717,5.75488 -14.23995,13.42089 -17.76835,22.99804 -2.01633,5.46082 -3.02446,11.00555 -3.0244,16.6342 -6e-5,11.59361 3.86445,21.96897 11.59353,31.12612 9.57719,11.34154 21.92681,17.01228 37.0489,17.01225 15.12188,3e-5 27.51351,-5.62871 37.17492,-16.88624 7.72887,-8.98912 11.59337,-19.40649 11.59353,-31.25213 z" />
          <path
             inkscape:connector-curvature="0"
             id="path3851"
             d="m 701.86159,536.04432 -54.94327,172.01275 -45.61803,0 -31.37815,-99.67918 -32.89034,99.67918 -45.49202,0 -51.28878,-172.01275 46.75218,0 29.86595,111.1467 36.41881,-111.1467 35.5367,0 33.89849,111.1467 32.51229,-111.1467 z" />
        </g>
        <text
           sodipodi:linespacing="125%"
           id="text3853"
           y="-28.812555"
           x="34.152058"
           style="font-size:13.67780113px;font-style:normal;font-variant:normal;font-weight:bold;font-stretch:normal;line-height:125%;letter-spacing:0px;word-spacing:0px;fill:#000000;fill-opacity:1;stroke:none;font-family:Aharoni;-inkscape-font-specification:Aharoni Bold"
           xml:space="preserve"
           transform="matrix(0,1,-1,0,0,0)"><tspan
             y="-28.812555"
             x="34.152058"
             id="tspan3855"
             sodipodi:role="line">GUERILLA MINDFULNESS FRONT</tspan></text>
      </g>
      <use
         height="1052.3622"
         width="744.09448"
         id="use3857"
         xlink:href="#g3487"
         inkscape:tiled-clone-of="#g3487"
         y="0"
         x="0"
         transform="translate(321.22851,0)" />
      <use
         height="1052.3622"
         width="744.09448"
         id="use3859"
         transform="translate(321.22851,216.43602)"
         xlink:href="#g3487"
         inkscape:tiled-clone-of="#g3487"
         y="0"
         x="0" />
      <use
         height="1052.3622"
         width="744.09448"
         id="use3861"
         transform="translate(321.22851,432.87204)"
         xlink:href="#g3487"
         inkscape:tiled-clone-of="#g3487"
         y="0"
         x="0" />
      <use
         height="1052.3622"
         width="744.09448"
         id="use3863"
         transform="translate(321.22851,649.30806)"
         xlink:href="#g3487"
         inkscape:tiled-clone-of="#g3487"
         y="0"
         x="0" />
    </g>
    <g
       id="g3905"
       transform="translate(1.5258789e-5,0)">
      <g
         id="g3865"
         transform="matrix(0.23040144,0,0,0.23040144,638.99231,191.7406)" />
      <g
         id="g3867"
         transform="matrix(0.74948597,0,0,0.74948597,543.88591,126.23788)"
         inkscape:tile-cx="116.17243"
         inkscape:tile-cy="133.62532"
         inkscape:tile-w="123.94568"
         inkscape:tile-h="156.43602"
         inkscape:tile-x0="54.199589"
         inkscape:tile-y0="55.407311">
        <g
           transform="matrix(0.23040144,0,0,0.23040144,30.622891,78.857384)"
           style="font-size:663.64770508px;font-style:normal;font-variant:normal;font-weight:bold;font-stretch:normal;line-height:125%;letter-spacing:0px;word-spacing:0px;fill:#000000;fill-opacity:1;stroke:none;display:inline;font-family:Aharoni;-inkscape-font-specification:Aharoni Bold"
           id="g3869">
          <path
             d="m 408.5607,143.65761 c -4e-4,34.6745 -9.8588,62.88991 -29.57522,84.64633 -28.55574,31.50159 -72.06866,47.25236 -130.53892,47.25236 l -193.428749,0 0,-464.02503 179.491009,0 c 87.02563,4.6e-4 130.53855,40.34057 130.53891,121.020444 -3.6e-4,24.249735 -4.75958,44.533105 -14.27769,60.8501703 -7.93239,13.8247015 -20.1704,25.6094527 -36.71407,35.3542887 37.16698,7.705661 62.54953,22.549915 76.1477,44.532806 12.23762,20.170261 18.35663,43.626451 18.35703,70.368631 z M 253.54574,-51.470867 c -2.4e-4,-21.076247 -9.5187,-35.013981 -28.55538,-41.813245 -6.79912,-2.26593 -15.86432,-3.399079 -27.19561,-3.399452 l -22.09643,0 0,90.7653386 22.09643,0 c 20.84975,2.814e-4 35.80731,-5.0988896 44.87275,-15.2975286 7.25192,-8.158377 10.878,-18.243405 10.87824,-30.255113 z m 34.33445,186.969797 c -2.8e-4,-26.96881 -13.93801,-42.832896 -41.81325,-47.592312 -8.83879,-1.359591 -24.02299,-2.039481 -45.55263,-2.03967 l -24.81599,0 0,97.904182 26.85566,0 c 30.82146,1e-4 52.35129,-3.62598 64.58956,-10.87824 13.82416,-8.15857 20.73637,-20.62322 20.73665,-37.39396 z"
             id="path3871"
             inkscape:connector-curvature="0" />
          <path
             d="m 708.48805,275.5563 -264.13733,0 0,-464.02503 264.13733,0 0,100.963684 -143.45682,0 0,78.5273148 135.63808,0 0,100.9636902 -135.63808,0 0,82.606661 143.45682,0 z"
             id="path3873"
             inkscape:connector-curvature="0" />
        </g>
        <g
           transform="matrix(0.23040144,0,0,0.23040144,30.622891,78.857384)"
           style="font-size:295.66604614px;font-style:normal;font-variant:normal;font-weight:bold;font-stretch:normal;line-height:125%;letter-spacing:0px;word-spacing:0px;fill:#000000;fill-opacity:1;stroke:none;display:inline;font-family:Aharoni;-inkscape-font-specification:Aharoni Bold"
           id="g3875">
          <path
             d="m 231.43574,501.74826 -51.25071,0 0,-82.00113 -73.91651,0 0,82.00113 -51.250708,0 0,-197.06257 51.250708,0 0,76.08203 73.91651,0 0,-76.08203 51.25071,0 z"
             id="path3877"
             inkscape:connector-curvature="0" />
          <path
             d="m 378.10522,501.74826 -112.17408,0 0,-197.06257 112.17408,0 0,42.87735 -60.92337,0 0,33.34905 57.6029,0 0,42.87735 -57.6029,0 0,35.08147 60.92337,0 z"
             id="path3879"
             inkscape:connector-curvature="0" />
          <path
             d="m 574.73471,501.74826 -63.81074,0 -48.79644,-75.64893 0,75.64893 -51.25071,0 0,-197.06257 79.69124,0 c 23.29128,1.9e-4 40.5192,6.97798 51.68381,20.93338 9.04691,11.26089 13.57044,24.49462 13.57061,39.70125 -1.7e-4,17.42055 -5.19741,31.32801 -15.59176,41.72241 -6.64108,6.64102 -15.78439,11.2608 -27.42996,13.85935 z M 502.55062,368.20769 c -1.1e-4,-7.02578 -2.55062,-12.94487 -7.65151,-17.75729 -4.81238,-4.52338 -12.56013,-6.78515 -23.24328,-6.7853 l -9.5283,0 0,49.22955 9.5283,0 c 10.7794,1.1e-4 18.52715,-2.26166 23.24328,-6.78531 5.10089,-4.90839 7.6514,-10.87561 7.65151,-17.90165 z"
             id="path3881"
             inkscape:connector-curvature="0" />
          <path
             d="m 708.41968,501.74826 -112.17408,0 0,-197.06257 112.17408,0 0,42.87735 -60.92338,0 0,33.34905 57.60291,0 0,42.87735 -57.60291,0 0,35.08147 60.92338,0 z"
             id="path3883"
             inkscape:connector-curvature="0" />
        </g>
        <g
           transform="matrix(0.23040144,0,0,0.23040144,30.622891,78.857384)"
           style="font-size:258.0821228px;font-style:normal;font-variant:normal;font-weight:bold;font-stretch:normal;line-height:125%;letter-spacing:0px;word-spacing:0px;fill:#000000;fill-opacity:1;stroke:none;display:inline;font-family:Aharoni;-inkscape-font-specification:Aharoni Bold"
           id="g3885">
          <path
             d="m 226.77852,708.05707 -44.73591,0 -82.288884,-105.34993 0,105.34993 -44.735915,0 0,-172.01275 44.735915,0 82.288884,105.22392 0,-105.22392 44.73591,0 z"
             id="path3887"
             inkscape:connector-curvature="0" />
          <path
             d="m 438.2258,622.61777 c -2e-4,23.35515 -7.77122,43.85384 -23.31309,61.49613 -17.7265,20.07866 -41.71165,30.11798 -71.95551,30.11798 -30.16006,0 -54.1032,-10.03932 -71.8295,-30.11798 -15.54207,-17.64229 -23.31309,-38.14098 -23.31308,-61.49613 -1e-5,-10.66931 2.10027,-21.61175 6.30083,-32.82734 4.20054,-11.21535 9.82928,-20.81361 16.88624,-28.79481 17.72629,-20.07848 41.71144,-30.1178 71.95551,-30.11798 30.24386,1.8e-4 54.22901,10.0395 71.95551,30.11798 15.54187,17.64247 23.31289,38.18316 23.31309,61.62215 z m -46.50015,0 c -1.6e-4,-12.0975 -3.86466,-22.55687 -11.59353,-31.37815 -9.91345,-11.25736 -22.30507,-16.8861 -37.17492,-16.88623 -10.24945,1.3e-4 -19.53267,2.87751 -27.84968,8.63214 -8.31717,5.75488 -14.23995,13.42089 -17.76835,22.99804 -2.01633,5.46082 -3.02446,11.00555 -3.0244,16.6342 -6e-5,11.59361 3.86445,21.96897 11.59353,31.12612 9.57719,11.34154 21.92681,17.01228 37.0489,17.01225 15.12188,3e-5 27.51351,-5.62871 37.17492,-16.88624 7.72887,-8.98912 11.59337,-19.40649 11.59353,-31.25213 z"
             id="path3889"
             inkscape:connector-curvature="0" />
          <path
             d="m 701.86159,536.04432 -54.94327,172.01275 -45.61803,0 -31.37815,-99.67918 -32.89034,99.67918 -45.49202,0 -51.28878,-172.01275 46.75218,0 29.86595,111.1467 36.41881,-111.1467 35.5367,0 33.89849,111.1467 32.51229,-111.1467 z"
             id="path3891"
             inkscape:connector-curvature="0" />
        </g>
        <text
           transform="matrix(0,1,-1,0,0,0)"
           xml:space="preserve"
           style="font-size:13.67780113px;font-style:normal;font-variant:normal;font-weight:bold;font-stretch:normal;line-height:125%;letter-spacing:0px;word-spacing:0px;fill:#000000;fill-opacity:1;stroke:none;font-family:Aharoni;-inkscape-font-specification:Aharoni Bold"
           x="34.152058"
           y="-28.812555"
           id="text3893"
           sodipodi:linespacing="125%"><tspan
             sodipodi:role="line"
             id="tspan3895"
             x="34.152058"
             y="-28.812555">GUERILLA MINDFULNESS FRONT</tspan></text>
      </g>
      <use
         transform="translate(484.87322,0)"
         x="0"
         y="0"
         inkscape:tiled-clone-of="#g3487"
         xlink:href="#g3487"
         id="use3897"
         width="744.09448"
         height="1052.3622" />
      <use
         x="0"
         y="0"
         inkscape:tiled-clone-of="#g3487"
         xlink:href="#g3487"
         transform="translate(484.87322,216.43602)"
         id="use3899"
         width="744.09448"
         height="1052.3622" />
      <use
         x="0"
         y="0"
         inkscape:tiled-clone-of="#g3487"
         xlink:href="#g3487"
         transform="translate(484.87322,432.87204)"
         id="use3901"
         width="744.09448"
         height="1052.3622" />
      <use
         x="0"
         y="0"
         inkscape:tiled-clone-of="#g3487"
         xlink:href="#g3487"
         transform="translate(484.87322,649.30806)"
         id="use3903"
         width="744.09448"
         height="1052.3622" />
    </g>
  </g>
</svg>
