<?xml version="1.0" encoding="UTF-8" standalone="no"?>
<!-- Created with Inkscape (http://www.inkscape.org/) -->

<svg
   xmlns:dc="http://purl.org/dc/elements/1.1/"
   xmlns:cc="http://creativecommons.org/ns#"
   xmlns:rdf="http://www.w3.org/1999/02/22-rdf-syntax-ns#"
   xmlns:svg="http://www.w3.org/2000/svg"
   xmlns="http://www.w3.org/2000/svg"
   xmlns:sodipodi="http://sodipodi.sourceforge.net/DTD/sodipodi-0.dtd"
   xmlns:inkscape="http://www.inkscape.org/namespaces/inkscape"
   width="765"
   height="990"
   id="svg3584"
   version="1.1"
   inkscape:version="0.48.1 "
   sodipodi:docname="New document 2">
  <defs
     id="defs3586" />
  <sodipodi:namedview
     inkscape:document-units="in"
     pagecolor="#ffffff"
     bordercolor="#666666"
     borderopacity="1.0"
     inkscape:pageopacity="0.0"
     inkscape:pageshadow="2"
     inkscape:zoom="0.61399264"
     inkscape:cx="379.24949"
     inkscape:cy="497.94587"
     inkscape:current-layer="layer2"
     id="namedview3588"
     showgrid="false"
     units="in"
     inkscape:window-width="1366"
     inkscape:window-height="746"
     inkscape:window-x="-8"
     inkscape:window-y="-8"
     inkscape:window-maximized="1" />
  <metadata
     id="metadata3590">
    <rdf:RDF>
      <cc:Work
         rdf:about="">
        <dc:format>image/svg+xml</dc:format>
        <dc:type
           rdf:resource="http://purl.org/dc/dcmitype/StillImage" />
        <dc:title></dc:title>
      </cc:Work>
    </rdf:RDF>
  </metadata>
  <g
     inkscape:groupmode="layer"
     id="layer2"
     inkscape:label="Outset"
     style="display:none">
    <g
       style="font-size:663.64770508px;font-style:normal;font-variant:normal;font-weight:bold;font-stretch:normal;line-height:125%;letter-spacing:0px;word-spacing:0px;fill:#000000;fill-opacity:1;stroke:#000000;stroke-width:11.97000027;stroke-miterlimit:4;stroke-dasharray:none;font-family:Aharoni;-inkscape-font-specification:Aharoni Bold"
       id="text3656">
      <path
         d="m 392.00018,376.04617 c -3.9e-4,33.05286 -9.39773,59.94872 -28.19207,80.68764 -27.22025,30.02835 -68.69819,45.0425 -124.43394,45.0425 l -184.382593,0 0,-442.323792 171.096673,0 c 82.95566,4.43e-4 124.4336,38.45395 124.43395,115.360632 -3.5e-4,23.11564 -4.537,42.45041 -13.60997,58.00437 -7.56141,13.17816 -19.22708,24.41176 -34.99704,33.70086 35.42878,7.34529 59.62424,21.49531 72.58646,42.45012 11.66531,19.22695 17.49814,41.58615 17.49853,67.07767 z M 244.23487,190.04335 c -2.4e-4,-20.09056 -9.07354,-33.37647 -27.21993,-39.85775 -6.48113,-2.15995 -15.12237,-3.24011 -25.92374,-3.24046 l -21.06303,0 0,86.52047 21.06303,0 c 19.87467,2.7e-4 34.13271,-4.86042 42.77417,-14.5821 6.91277,-7.77683 10.36926,-17.39021 10.3695,-28.84016 z m 32.72872,178.2257 c -2.7e-4,-25.70755 -13.28617,-40.82971 -39.85775,-45.36654 -8.42544,-1.29601 -22.89951,-1.9441 -43.42226,-1.94428 l -23.65541,0 0,93.32546 25.59969,0 c 29.38002,9e-5 49.90296,-3.45641 61.56888,-10.3695 13.17764,-7.77701 19.76658,-19.65871 19.76685,-35.64514 z"
         style="fill:#000000;stroke:#000000;stroke-width:11.97000027;stroke-miterlimit:4;stroke-dasharray:none"
         id="path3725"
         inkscape:connector-curvature="0" />
      <path
         d="m 706.62943,501.77631 -251.78431,0 0,-442.323792 251.78431,0 0,96.241882 -136.74772,0 0,74.85479 129.29465,0 0,96.24188 -129.29465,0 0,78.74336 136.74772,0 z"
         style="fill:#000000;stroke:#000000;stroke-width:11.97000027;stroke-miterlimit:4;stroke-dasharray:none"
         id="path3727"
         inkscape:connector-curvature="0" />
    </g>
    <g
       style="font-size:295.66604614px;font-style:normal;font-variant:normal;font-weight:bold;font-stretch:normal;line-height:125%;letter-spacing:0px;word-spacing:0px;fill:#000000;fill-opacity:1;stroke:#000000;stroke-width:11.97000027;stroke-miterlimit:4;stroke-dasharray:none;font-family:Aharoni;-inkscape-font-specification:Aharoni Bold"
       id="text3660">
      <path
         d="m 231.40951,727.96826 -51.25071,0 0,-82.00113 -73.91651,0 0,82.00113 -51.250708,0 0,-197.06257 51.250708,0 0,76.08203 73.91651,0 0,-76.08203 51.25071,0 z"
         style="fill:#000000;stroke:#000000;stroke-width:11.97000027;stroke-miterlimit:4;stroke-dasharray:none"
         id="path3730"
         inkscape:connector-curvature="0" />
      <path
         d="m 378.07899,727.96826 -112.17408,0 0,-197.06257 112.17408,0 0,42.87735 -60.92337,0 0,33.34905 57.6029,0 0,42.87735 -57.6029,0 0,35.08147 60.92337,0 z"
         style="fill:#000000;stroke:#000000;stroke-width:11.97000027;stroke-miterlimit:4;stroke-dasharray:none"
         id="path3732"
         inkscape:connector-curvature="0" />
      <path
         d="m 574.70848,727.96826 -63.81074,0 -48.79644,-75.64893 0,75.64893 -51.25071,0 0,-197.06257 79.69124,0 c 23.29128,1.9e-4 40.5192,6.97798 51.68381,20.93338 9.04691,11.26089 13.57044,24.49462 13.57061,39.70126 -1.7e-4,17.42054 -5.19741,31.328 -15.59176,41.7224 -6.64108,6.64103 -15.78439,11.2608 -27.42996,13.85935 z M 502.52439,594.42769 c -1.1e-4,-7.02578 -2.55061,-12.94487 -7.65151,-17.75729 -4.81238,-4.52338 -12.56013,-6.78514 -23.24328,-6.7853 l -9.5283,0 0,49.22955 9.5283,0 c 10.7794,1.1e-4 18.52715,-2.26166 23.24328,-6.78531 5.1009,-4.90839 7.6514,-10.87561 7.65151,-17.90165 z"
         style="fill:#000000;stroke:#000000;stroke-width:11.97000027;stroke-miterlimit:4;stroke-dasharray:none"
         id="path3734"
         inkscape:connector-curvature="0" />
      <path
         d="m 708.39345,727.96826 -112.17408,0 0,-197.06257 112.17408,0 0,42.87735 -60.92338,0 0,33.34905 57.60291,0 0,42.87735 -57.60291,0 0,35.08147 60.92338,0 z"
         style="fill:#000000;stroke:#000000;stroke-width:11.97000027;stroke-miterlimit:4;stroke-dasharray:none"
         id="path3736"
         inkscape:connector-curvature="0" />
    </g>
    <g
       style="font-size:258.0821228px;font-style:normal;font-variant:normal;font-weight:bold;font-stretch:normal;line-height:125%;letter-spacing:0px;word-spacing:0px;fill:#000000;fill-opacity:1;stroke:#000000;stroke-width:11.97000027;stroke-miterlimit:4;stroke-dasharray:none;font-family:Aharoni;-inkscape-font-specification:Aharoni Bold"
       id="text3664">
      <path
         d="m 226.75229,934.27704 -44.73591,0 -82.288884,-105.34993 0,105.34993 -44.735914,0 0,-172.01274 44.735914,0 82.288884,105.22391 0,-105.22391 44.73591,0 z"
         style="fill:#000000;stroke:#000000;stroke-width:11.97000027;stroke-miterlimit:4;stroke-dasharray:none"
         id="path3739"
         inkscape:connector-curvature="0" />
      <path
         d="m 438.19957,848.83774 c -2e-4,23.35515 -7.77122,43.85384 -23.31309,61.49613 -17.7265,20.07866 -41.71165,30.11798 -71.95551,30.11798 -30.16006,0 -54.1032,-10.03932 -71.8295,-30.11798 -15.54207,-17.64229 -23.31309,-38.14098 -23.31308,-61.49613 -1e-5,-10.66931 2.10027,-21.61175 6.30083,-32.82734 4.20054,-11.21535 9.82928,-20.81361 16.88624,-28.79481 17.72629,-20.07848 41.71144,-30.1178 71.95551,-30.11798 30.24386,1.8e-4 54.22901,10.0395 71.95551,30.11798 15.54187,17.64247 23.31289,38.18316 23.31309,61.62215 z m -46.50015,0 c -1.6e-4,-12.0975 -3.86466,-22.55687 -11.59353,-31.37815 -9.91345,-11.25736 -22.30507,-16.8861 -37.17492,-16.88623 -10.24945,1.3e-4 -19.53267,2.87751 -27.84968,8.63214 -8.31717,5.75488 -14.23995,13.42089 -17.76835,22.99804 -2.01633,5.46082 -3.02446,11.00555 -3.0244,16.6342 -6e-5,11.59361 3.86445,21.96897 11.59353,31.12612 9.57719,11.34154 21.92681,17.01228 37.0489,17.01225 15.12188,3e-5 27.51351,-5.6287 37.17492,-16.88624 7.72887,-8.98912 11.59337,-19.40649 11.59353,-31.25213 z"
         style="fill:#000000;stroke:#000000;stroke-width:11.97000027;stroke-miterlimit:4;stroke-dasharray:none"
         id="path3741"
         inkscape:connector-curvature="0" />
      <path
         d="m 701.83536,762.2643 -54.94327,172.01274 -45.61803,0 -31.37815,-99.67918 -32.89034,99.67918 -45.49202,0 -51.28878,-172.01274 46.75218,0 29.86595,111.14669 36.41881,-111.14669 35.5367,0 33.89849,111.14669 32.51229,-111.14669 z"
         style="fill:#000000;stroke:#000000;stroke-width:11.97000027;stroke-miterlimit:4;stroke-dasharray:none"
         id="path3743"
         inkscape:connector-curvature="0" />
    </g>
  </g>
  <g
     inkscape:label="Normal"
     inkscape:groupmode="layer"
     id="layer1"
     transform="translate(0,225)"
     style="display:inline">
    <g
       style="font-size:663.64770508px;font-style:normal;font-variant:normal;font-weight:bold;font-stretch:normal;line-height:125%;letter-spacing:0px;word-spacing:0px;fill:#000000;fill-opacity:1;stroke:none;font-family:Aharoni;-inkscape-font-specification:Aharoni Bold"
       id="text5136">
      <path
         d="m 392.02641,149.82617 c -3.8e-4,33.05286 -9.39773,59.94871 -28.19206,80.68764 -27.22026,30.02834 -68.6982,45.04249 -124.43395,45.04249 l -184.382589,0 0,-442.32378 171.096679,0 c 82.95566,4.4e-4 124.4336,38.45395 124.43394,115.360633 -3.4e-4,23.115638 -4.53699,42.4504066 -13.60996,58.0043652 -7.56141,13.1781558 -19.22708,24.4117648 -34.99705,33.7008598 35.42878,7.345287 59.62425,21.495314 72.58647,42.450122 11.6653,19.22695 17.49814,41.58615 17.49852,67.07767 z M 244.2611,-36.17665 c -2.3e-4,-20.090566 -9.07353,-33.376468 -27.21992,-39.857748 -6.48114,-2.159958 -15.12238,-3.240113 -25.92374,-3.240468 l -21.06304,0 0,86.5204777 21.06304,0 c 19.87466,2.683e-4 34.1327,-4.8604278 42.77417,-14.5821029 6.91276,-7.7768308 10.36926,-17.3902078 10.36949,-28.8401588 z m 32.72872,178.2257 c -2.7e-4,-25.70755 -13.28617,-40.82971 -39.85775,-45.366541 -8.42543,-1.296006 -22.8995,-1.944099 -43.42226,-1.94428 l -23.65541,0 0,93.325461 25.59969,0 c 29.38002,9e-5 49.90296,-3.45641 61.56888,-10.3695 13.17764,-7.77701 19.76658,-19.65872 19.76685,-35.64514 z"
         id="path4514"
         inkscape:connector-curvature="0" />
      <path
         d="m 706.65567,275.5563 -251.78431,0 0,-442.32378 251.78431,0 0,96.241876 -136.74772,0 0,74.8547951 129.29464,0 0,96.2418789 -129.29464,0 0,78.74336 136.74772,0 z"
         id="path4516"
         inkscape:connector-curvature="0" />
    </g>
    <g
       style="font-size:295.66604614px;font-style:normal;font-variant:normal;font-weight:bold;font-stretch:normal;line-height:125%;letter-spacing:0px;word-spacing:0px;fill:#000000;fill-opacity:1;stroke:none;font-family:Aharoni;-inkscape-font-specification:Aharoni Bold"
       id="text3614">
      <path
         d="m 231.43574,501.74826 -51.25071,0 0,-82.00113 -73.91651,0 0,82.00113 -51.250708,0 0,-197.06257 51.250708,0 0,76.08203 73.91651,0 0,-76.08203 51.25071,0 z"
         id="path4519"
         inkscape:connector-curvature="0" />
      <path
         d="m 378.10522,501.74826 -112.17408,0 0,-197.06257 112.17408,0 0,42.87735 -60.92337,0 0,33.34905 57.6029,0 0,42.87735 -57.6029,0 0,35.08147 60.92337,0 z"
         id="path4521"
         inkscape:connector-curvature="0" />
      <path
         d="m 574.73471,501.74826 -63.81074,0 -48.79644,-75.64893 0,75.64893 -51.25071,0 0,-197.06257 79.69124,0 c 23.29128,1.9e-4 40.5192,6.97798 51.68381,20.93338 9.04691,11.26089 13.57044,24.49462 13.57061,39.70125 -1.7e-4,17.42055 -5.19741,31.32801 -15.59176,41.72241 -6.64108,6.64102 -15.78439,11.2608 -27.42996,13.85935 z M 502.55062,368.20769 c -1.1e-4,-7.02578 -2.55062,-12.94487 -7.65151,-17.75729 -4.81238,-4.52338 -12.56013,-6.78515 -23.24328,-6.7853 l -9.5283,0 0,49.22955 9.5283,0 c 10.7794,1.1e-4 18.52715,-2.26166 23.24328,-6.78531 5.10089,-4.90839 7.6514,-10.87561 7.65151,-17.90165 z"
         id="path4523"
         inkscape:connector-curvature="0" />
      <path
         d="m 708.41968,501.74826 -112.17408,0 0,-197.06257 112.17408,0 0,42.87735 -60.92338,0 0,33.34905 57.60291,0 0,42.87735 -57.60291,0 0,35.08147 60.92338,0 z"
         id="path4525"
         inkscape:connector-curvature="0" />
    </g>
    <g
       style="font-size:258.0821228px;font-style:normal;font-variant:normal;font-weight:bold;font-stretch:normal;line-height:125%;letter-spacing:0px;word-spacing:0px;fill:#000000;fill-opacity:1;stroke:none;font-family:Aharoni;-inkscape-font-specification:Aharoni Bold"
       id="text3618">
      <path
         d="m 226.77852,708.05707 -44.73591,0 -82.288884,-105.34993 0,105.34993 -44.735915,0 0,-172.01275 44.735915,0 82.288884,105.22392 0,-105.22392 44.73591,0 z"
         id="path4528"
         inkscape:connector-curvature="0" />
      <path
         d="m 438.2258,622.61777 c -2e-4,23.35515 -7.77122,43.85384 -23.31309,61.49613 -17.7265,20.07866 -41.71165,30.11798 -71.95551,30.11798 -30.16006,0 -54.1032,-10.03932 -71.8295,-30.11798 -15.54207,-17.64229 -23.31309,-38.14098 -23.31308,-61.49613 -1e-5,-10.66931 2.10027,-21.61175 6.30083,-32.82734 4.20054,-11.21535 9.82928,-20.81361 16.88624,-28.79481 17.72629,-20.07848 41.71144,-30.1178 71.95551,-30.11798 30.24386,1.8e-4 54.22901,10.0395 71.95551,30.11798 15.54187,17.64247 23.31289,38.18316 23.31309,61.62215 z m -46.50015,0 c -1.6e-4,-12.0975 -3.86466,-22.55687 -11.59353,-31.37815 -9.91345,-11.25736 -22.30507,-16.8861 -37.17492,-16.88623 -10.24945,1.3e-4 -19.53267,2.87751 -27.84968,8.63214 -8.31717,5.75488 -14.23995,13.42089 -17.76835,22.99804 -2.01633,5.46082 -3.02446,11.00555 -3.0244,16.6342 -6e-5,11.59361 3.86445,21.96897 11.59353,31.12612 9.57719,11.34154 21.92681,17.01228 37.0489,17.01225 15.12188,3e-5 27.51351,-5.62871 37.17492,-16.88624 7.72887,-8.98912 11.59337,-19.40649 11.59353,-31.25213 z"
         id="path4530"
         inkscape:connector-curvature="0" />
      <path
         d="m 701.86159,536.04432 -54.94327,172.01275 -45.61803,0 -31.37815,-99.67918 -32.89034,99.67918 -45.49202,0 -51.28878,-172.01275 46.75218,0 29.86595,111.1467 36.41881,-111.1467 35.5367,0 33.89849,111.1467 32.51229,-111.1467 z"
         id="path4532"
         inkscape:connector-curvature="0" />
    </g>
  </g>
</svg>
